<svg xmlns="http://www.w3.org/2000/svg" viewBox="0 0 318.75 202.92"><g style="opacity:0.8"><rect x="59.96" width="258.79" height="140.53" rx="9.74" style="fill:#d81159"/><path d="M322.12,118.79c-.22-.21-.44-.43-.65-.66-3.44-2.08-6.31-5.41-8.69-8.38a95.42,95.42,0,0,1-7.21-10.37A36.51,36.51,0,0,1,296,84.82H255.56v103l67.57-67.57C322.8,119.74,322.45,119.27,322.12,118.79Z" transform="translate(-5.78 -8.46)" style="fill:#d81159"/></g><rect y="62.31" width="202.91" height="110.18" rx="9.74" style="fill:#d81159"/><path d="M206.81,157.28c-.18-.17-.35-.34-.51-.52a27.88,27.88,0,0,1-6.82-6.57,75.06,75.06,0,0,1-5.65-8.13,28.59,28.59,0,0,1-7.48-11.42H154.62v80.73l53-53Z" transform="translate(-5.78 -8.46)" style="fill:#d81159"/></svg>